<?xml version="1.0" encoding="utf-8"?>
<!-- Generator: Adobe Illustrator 28.0.0, SVG Export Plug-In . SVG Version: 6.00 Build 0)  -->
<svg version="1.1" id="Слой_1" xmlns="http://www.w3.org/2000/svg" xmlns:xlink="http://www.w3.org/1999/xlink" x="0px" y="0px"
	 viewBox="0 0 155.91 99.21" style="enable-background:new 0 0 155.91 99.21;" xml:space="preserve">
<style type="text/css">
	.st0{fill:#020203;}
	.st1{fill:#2D6DB5;}
</style>
<g>
	<path class="st0" d="M76.5,37.9h-3.39h0.17H58.84c0-0.01,0.01-0.02,0.01-0.03H30.52v-0.01c-3.85-0.2-6.91-3.38-6.91-7.28
		c0-3.9,3.06-7.08,6.91-7.28v-0.01h6.74V2.12V1.33h-6.74c-16.15,0-29.25,13.1-29.25,29.25c0,15.82,12.55,28.7,28.24,29.23v0.01h0.25
		c0.25,0.01,0.51,0.01,0.76,0.01c0.16,0,0.31-0.01,0.46-0.01h17.37h24.94h3.11v0.01c3.81,0.2,6.84,3.85,6.84,7.81
		c0,3.97-3.03,8.05-6.84,8.25v0.01h-6.67v21.53v0.8h6.67c15.99,0,28.95-14.17,28.95-30.6S92.38,37.9,76.39,37.9H76.5z"/>
	<path class="st1" d="M119.32,68.11c13.26-4.82,22.73-17.54,22.73-32.47c0-18.9-15.19-34.26-34.03-34.54V1.09H42.29V32.8h21.69
		c1.14-5.51,6.05-9.69,11.89-9.69h31.77c6.68,0,12.14,5.46,12.14,12.14v0.52c0,6.68-5.46,12.14-12.14,12.14h-3.66
		c4.14,5.5,6.6,12.34,6.6,19.76c0,6.59-1.94,12.72-5.28,17.87l15.38,12.7h34.48L119.32,68.11z"/>
	<rect x="42.29" y="65.31" class="st1" width="22.37" height="32.93"/>
	<polygon class="st0" points="37.35,75.38 16.82,75.38 3.84,98.24 37.35,98.24 	"/>
</g>
</svg>
