<?xml version="1.0" encoding="utf-8"?>
<!-- Generator: Adobe Illustrator 28.0.0, SVG Export Plug-In . SVG Version: 6.00 Build 0)  -->
<svg version="1.1" xmlns="http://www.w3.org/2000/svg" xmlns:xlink="http://www.w3.org/1999/xlink" x="0px" y="0px"
	 viewBox="0 0 941 122" style="enable-background:new 0 0 941 122;" xml:space="preserve">
<style type="text/css">
	.st0{fill:#0571D4;}
</style>
<g id="Слой_1_xA0_Изображение_00000134223081815333011800000016133932109466631576_">
	<g>
		<path d="M95.26,48.73h-3.39h0.17H77.6c0-0.01,0.01-0.02,0.01-0.03H49.27V48.7c-3.85-0.2-6.91-3.38-6.91-7.28
			c0-3.9,3.06-7.08,6.91-7.28v-0.01h6.74V12.95v-0.79h-6.74c-16.15,0-29.25,13.1-29.25,29.25c0,15.82,12.55,28.7,28.24,29.23v0.01
			h0.25c0.25,0.01,0.51,0.01,0.76,0.01c0.16,0,0.31-0.01,0.46-0.01H67.1h24.94h3.11v0.01c3.81,0.2,6.84,3.85,6.84,7.81
			c0,3.97-3.03,8.05-6.84,8.25v0.01h-6.67v21.53v0.8h6.67c15.99,0,28.95-14.17,28.95-30.6s-12.96-29.74-28.95-29.74H95.26z"/>
		<path class="st0" d="M138.07,78.94c13.26-4.82,22.73-17.54,22.73-32.47c0-18.9-15.19-34.26-34.03-34.54v-0.01H61.04v31.71h21.69
			c1.14-5.51,6.05-9.69,11.89-9.69h31.77c6.68,0,12.14,5.46,12.14,12.14v0.52c0,6.68-5.46,12.14-12.14,12.14h-3.66
			c4.14,5.5,6.6,12.34,6.6,19.76c0,6.59-1.94,12.72-5.28,17.87l15.38,12.7h34.48L138.07,78.94z"/>
		<rect x="61.04" y="76.14" class="st0" width="22.37" height="32.93"/>
		<polygon points="56.11,86.22 35.57,86.22 22.59,109.07 56.11,109.07 		"/>
	</g>
</g>
<g id="sochirentacar">
	<g>
		<path d="M204.01,83.13c-1.36-1.36-2.13-2.8-2.13-4.42c0.08-3.06,2.55-5.1,5.27-5.1c1.02,0,2.12,0.34,2.98,1.11
			c2.3,2.38,6.29,5.78,11.99,5.78c5.02,0,7.99-2.38,7.99-6.21c0-3.23-1.96-4.59-7.14-6.97l-6.04-2.72
			c-8.93-4.08-13.6-8.93-13.6-16.15c0-9.44,7.99-15.9,18.62-15.9c8.42,0,13.35,3.91,15.73,6.63c1.19,1.28,1.53,2.55,1.53,3.66
			c0,2.89-2.64,5.1-5.27,5.1c-1.02,0-2.13-0.34-3.15-1.19c-2.29-2.04-4.85-4-8.84-4c-4.08,0-6.97,1.96-6.97,5.44
			c0,2.81,1.53,4.17,6.55,6.46l6.38,2.81c9.35,4.17,13.86,8.76,13.86,16.41c0,10.37-8.42,16.83-19.64,16.83
			C215.48,90.7,208.17,87.72,204.01,83.13z"/>
		<path d="M310.01,61.63c0,16.24-13.18,29.07-29.92,29.07c-16.75,0-29.75-12.75-29.75-29.07c0-16.32,13.09-29.07,29.75-29.07
			C296.83,32.55,310.01,45.39,310.01,61.63z M262.15,61.63c0,10.8,7.48,18.45,18.02,18.45c10.46,0,18.02-7.74,18.02-18.45
			c0-10.71-7.57-18.45-18.02-18.45C269.63,43.18,262.15,50.83,262.15,61.63z"/>
		<path d="M318.16,61.63c0-16.32,13.09-29.07,29.92-29.07c8.59,0,16.66,3.66,21.68,9.69c1.19,1.36,1.79,2.72,1.79,4.25
			c0,2.81-2.38,5.19-5.36,5.19c-1.61,0-3.15-0.77-4.42-2.21c-3.66-4.25-8.25-6.29-13.69-6.29c-10.54,0-18.11,7.74-18.11,18.53
			c0,10.71,7.57,18.36,18.11,18.36c5.36,0,9.86-2.04,13.6-6.29c1.36-1.45,2.81-2.21,4.5-2.21c2.98,0,5.27,2.38,5.27,5.19
			c0,1.36-0.51,2.72-1.79,4.25c-4.93,6.04-13.01,9.69-21.68,9.69C331.17,90.7,318.16,77.95,318.16,61.63z"/>
		<path d="M384.21,84.75V38.5c0-3.4,2.38-5.95,5.78-5.95c3.31,0,5.7,2.55,5.7,5.95v16.58h24.82V38.42c0-3.4,2.38-5.87,5.78-5.87
			c3.31,0,5.7,2.47,5.7,5.87v46.33c0,3.4-2.47,5.95-5.7,5.95c-3.32,0-5.78-2.55-5.78-5.95v-19.3h-24.82v19.3
			c0,3.4-2.47,5.95-5.7,5.95C386.67,90.7,384.21,88.15,384.21,84.75z"/>
		<path d="M446.43,84.83V38.42c0-3.31,2.38-5.87,5.78-5.87c3.32,0,5.7,2.55,5.7,5.87v46.41c0,3.32-2.38,5.87-5.7,5.87
			C448.81,90.7,446.43,88.15,446.43,84.83z"/>
		<path d="M516.64,85.43c0,2.89-2.46,5.27-5.36,5.27c-2.04,0-3.74-1.02-5.1-2.98l-12.58-17.85h-0.08h-9.69v14.96
			c0,3.32-2.46,5.87-5.7,5.87c-3.32,0-5.78-2.55-5.78-5.87V39.35c0-3.31,2.46-5.78,5.87-5.78h15.3c11.99,0,20.15,7.31,20.15,18.02
			c0,6.8-3.31,12.33-8.75,15.47l10.12,14.03C516.05,82.62,516.64,84.07,516.64,85.43z M483.83,59.76h9.61c5.27,0,8.5-3.15,8.5-8.08
			c0-4.85-3.32-7.99-8.5-7.99h-9.61V59.76z"/>
		<path d="M528.45,83.98V39.27c0-3.23,2.46-5.7,5.7-5.7h27.46c3.06,0,5.27,2.21,5.27,5.19c0,2.89-2.29,5.19-5.27,5.19h-21.68v11.39
			h14.88c2.89,0,5.01,2.12,5.01,4.93c0,2.72-2.12,4.84-5.01,4.84h-14.88v14.2h22.7c3.06,0,5.27,2.3,5.27,5.19
			c0,2.98-2.3,5.19-5.27,5.19h-28.48C530.92,89.68,528.45,87.21,528.45,83.98z"/>
		<path d="M626.55,38.42v46.5c0,3.23-2.38,5.78-5.61,5.78c-2.81,0-4.17-1.62-5.7-3.49l-24.99-32.13v29.75c0,3.32-2.46,5.87-5.7,5.87
			c-3.32,0-5.78-2.55-5.78-5.87v-46.5c0-3.23,2.46-5.78,5.61-5.78c2.89,0,4.17,1.62,5.87,3.74l24.91,31.88l-0.08-29.75
			c0-3.31,2.46-5.87,5.78-5.87C624.08,32.55,626.55,35.1,626.55,38.42z"/>
		<path d="M653.75,84.83V43.95H640.4c-2.98,0-5.27-2.3-5.27-5.19c0-2.98,2.29-5.19,5.27-5.19h38.17c3.06,0,5.27,2.21,5.27,5.19
			c0,2.89-2.3,5.19-5.27,5.19h-13.35v40.89c0,3.32-2.46,5.87-5.78,5.87C656.21,90.7,653.75,88.15,653.75,84.83z"/>
		<path d="M733.05,85.17c0,3.06-2.38,5.53-5.61,5.53c-2.46,0-4.33-1.45-5.44-4.08l-2.38-5.78h-23.72l-2.38,5.78
			c-1.02,2.64-2.89,4.08-5.36,4.08c-3.23,0-5.7-2.47-5.7-5.53c0-0.85,0.25-1.87,0.68-3.06l19.21-45.65
			c1.02-2.55,2.89-3.91,5.44-3.91c2.55,0,4.42,1.36,5.44,3.91l19.13,45.65C732.88,83.3,733.05,84.32,733.05,85.17z M699.65,71.4
			h16.15l-7.99-21.93L699.65,71.4z"/>
		<path d="M739.51,61.63c0-16.32,13.09-29.07,29.92-29.07c8.58,0,16.66,3.66,21.68,9.69c1.19,1.36,1.79,2.72,1.79,4.25
			c0,2.81-2.38,5.19-5.36,5.19c-1.61,0-3.14-0.77-4.42-2.21c-3.66-4.25-8.25-6.29-13.69-6.29c-10.54,0-18.11,7.74-18.11,18.53
			c0,10.71,7.57,18.36,18.11,18.36c5.36,0,9.86-2.04,13.6-6.29c1.36-1.45,2.81-2.21,4.5-2.21c2.98,0,5.27,2.38,5.27,5.19
			c0,1.36-0.51,2.72-1.79,4.25c-4.93,6.04-13.01,9.69-21.68,9.69C752.51,90.7,739.51,77.95,739.51,61.63z"/>
		<path d="M851.71,85.17c0,3.06-2.38,5.53-5.61,5.53c-2.47,0-4.34-1.45-5.44-4.08l-2.38-5.78h-23.72l-2.38,5.78
			c-1.02,2.64-2.89,4.08-5.36,4.08c-3.23,0-5.7-2.47-5.7-5.53c0-0.85,0.25-1.87,0.68-3.06l19.21-45.65
			c1.02-2.55,2.89-3.91,5.44-3.91s4.42,1.36,5.44,3.91l19.13,45.65C851.54,83.3,851.71,84.32,851.71,85.17z M818.3,71.4h16.15
			l-7.99-21.93L818.3,71.4z"/>
		<path d="M906.96,85.43c0,2.89-2.47,5.27-5.36,5.27c-2.04,0-3.74-1.02-5.1-2.98l-12.58-17.85h-0.08h-9.69v14.96
			c0,3.32-2.47,5.87-5.7,5.87c-3.31,0-5.78-2.55-5.78-5.87V39.35c0-3.31,2.47-5.78,5.87-5.78h15.3c11.99,0,20.15,7.31,20.15,18.02
			c0,6.8-3.32,12.33-8.76,15.47l10.12,14.03C906.37,82.62,906.96,84.07,906.96,85.43z M874.15,59.76h9.61c5.27,0,8.5-3.15,8.5-8.08
			c0-4.85-3.32-7.99-8.5-7.99h-9.61V59.76z"/>
	</g>
</g>
</svg>
