<svg width="665" height="629" viewBox="0 0 665 629" fill="none" xmlns="http://www.w3.org/2000/svg">
<path fill-rule="evenodd" clip-rule="evenodd" d="M309.474 59.023C360.226 57.476 409.475 58.811 457.914 73.7039C511.787 90.2676 585.207 97.4496 604.729 149.802C625.361 205.128 535.523 226.813 525.398 285.023C517.755 328.963 566.968 402.303 553.41 444.842C537.667 494.234 515.39 553.285 465.889 570.148C415.794 587.214 368.326 538.754 317.218 525.303C274.008 513.932 233.441 488.972 192.798 470.578C140.349 446.842 62.6009 458.902 48.2991 403.6C33.8533 347.742 109.064 307.318 125.42 251.878C141.755 196.508 102.732 125.282 142.789 83.3097C182.187 42.0289 252.201 60.7689 309.474 59.023Z" stroke="#9343F9" stroke-opacity="0.3"/>
<path opacity="0.7" fill-rule="evenodd" clip-rule="evenodd" d="M328.824 115.349C387.516 104.732 422.338 19.0463 481.078 28.997C535.917 38.2868 532.838 99.2805 558.574 147.998C582.225 192.766 595.577 216.947 597 267.5C593.103 326.528 544.775 338.374 520.505 383.991C494.634 432.618 535.119 557.369 480.831 568.929C424.991 580.819 382.928 515.363 327.473 502.177C280.212 490.94 228.73 518.466 184.552 498.481C134.587 475.878 88.6696 436.984 70.2173 385.802C51.4796 333.827 68.7499 276.822 85.637 224.111C102.205 172.397 116.278 108.308 166.283 85.9434C217.602 62.9916 273.457 125.365 328.824 115.349Z" stroke="url(#paint0_linear)"/>
<defs>
<linearGradient id="paint0_linear" x1="289.062" y1="54.5567" x2="367.504" y2="585.797" gradientUnits="userSpaceOnUse">
<stop stop-color="#9343F9"/>
<stop offset="1" stop-color="#9343F9" stop-opacity="0.88"/>
</linearGradient>
</defs>
</svg>
