<svg width="48" height="48" viewBox="0 0 48 48" fill="none" xmlns="http://www.w3.org/2000/svg">
<g opacity="0.7">
<path d="M24.1251 4.13017C23.5458 3.8762 22.9753 4.05387 22.6083 4.42764C22.2518 4.79072 22.0735 5.34487 22.1985 5.90358C22.3958 6.78546 22.5 7.70296 22.5 8.6454C22.5 10.7971 21.9577 12.3041 21.0246 13.5534C20.0761 14.8234 18.703 15.8573 16.9693 17.0238C16.9421 17.0422 16.9167 17.0632 16.8936 17.0865L16.6836 17.2981C12.9639 19.7012 10.5 23.8854 10.5 28.6454C10.5 36.1012 16.5442 42.1454 24 42.1454C31.4558 42.1454 37.5 36.1012 37.5 28.6454C37.5 26.4563 36.9786 24.3875 36.0527 22.5579C35.9774 22.409 35.8328 22.3076 35.6672 22.2873C35.5016 22.2671 35.3369 22.3308 35.2279 22.4571C35.0869 22.6206 34.9488 22.782 34.8127 22.941C33.0562 24.9933 31.6386 26.6496 28.7323 27.3895C28.6087 27.4209 28.5319 27.3975 28.4775 27.3635C28.4133 27.3234 28.3432 27.2435 28.2951 27.1157C28.195 26.8494 28.2379 26.5099 28.4432 26.2874C29.9976 24.6022 31.1018 22.3146 31.4964 19.0603C32.2355 12.9645 29.465 6.47136 24.1251 4.13017Z" fill="white"/>
</g>
</svg>
