<svg width="48" height="48" viewBox="0 0 48 48" fill="none" xmlns="http://www.w3.org/2000/svg">
<g opacity="0.7">
<path d="M29.2063 5.52109C26.1251 5.17038 23.014 5.17038 19.9328 5.52109L16.7422 5.88425C16.2702 5.93797 15.9012 6.31629 15.8592 6.78944L15.6139 9.55299C15.2016 14.1994 15.2016 18.8733 15.6139 23.5197L15.8592 26.2833C15.905 26.7993 16.3373 27.1949 16.8553 27.1949H20.9981V41.9998C20.9981 42.4246 21.2666 42.8031 21.6675 42.9435C22.0684 43.084 22.5144 42.9558 22.7795 42.6239L23.5609 41.6455C28.2197 35.8126 31.9295 29.2813 34.5534 22.2926L34.9343 21.2781C35.0496 20.971 35.007 20.6269 34.8202 20.3572C34.6334 20.0875 34.3262 19.9266 33.9981 19.9266H28.572L33.2229 7.2216C33.3283 6.93365 33.2958 6.61325 33.1347 6.35236C32.9735 6.09147 32.7016 5.91893 32.3969 5.88425L29.2063 5.52109Z" fill="white"/>
</g>
</svg>
