<svg width="48" height="48" viewBox="0 0 48 48" fill="none" xmlns="http://www.w3.org/2000/svg">
<g opacity="0.7">
<path d="M25.7285 5.99232C24.9578 4.66402 23.0395 4.66402 22.2688 5.99232L16.8407 15.3469C16.4599 16.0031 15.8018 16.4509 15.0517 16.5642L4.87908 18.1006C3.17052 18.3587 2.5712 20.5159 3.90181 21.6183L11.48 27.8968C12.1815 28.4779 12.5113 29.3947 12.3409 30.2895L10.3586 40.6998C10.0452 42.3455 11.7728 43.6241 13.2551 42.8436L22.8339 37.8C23.563 37.4161 24.4343 37.4161 25.1634 37.8L34.7422 42.8436C36.2245 43.6241 37.9521 42.3455 37.6387 40.6998L35.6564 30.2895C35.486 29.3947 35.8158 28.4779 36.5173 27.8968L44.0955 21.6183C45.4261 20.5159 44.8268 18.3587 43.1182 18.1006L32.9456 16.5642C32.1955 16.4509 31.5374 16.0031 31.1566 15.3469L25.7285 5.99232Z" fill="white"/>
</g>
</svg>
